<?xml version="1.0" encoding="UTF-8"?>
<svg xmlns="http://www.w3.org/2000/svg" xmlns:xlink="http://www.w3.org/1999/xlink" width="144" height="267" viewBox="0 0 144 267">
<path fill-rule="nonzero" fill="rgb(16.699205%, 46.73236%, 55.686275%)" fill-opacity="1" d="M 5.5 5.5 L 24.5 5.5 L 24.5 13.5 L 5.5 13.5 Z M 5.5 5.5 "/>
<path fill-rule="nonzero" fill="rgb(22.755045%, 32.344305%, 54.324983%)" fill-opacity="1" d="M 24.5 5.5 L 43.5 5.5 L 43.5 13.5 L 24.5 13.5 Z M 24.5 5.5 "/>
<path fill-rule="nonzero" fill="rgb(22.430278%, 33.11875%, 54.449893%)" fill-opacity="1" d="M 43.5 5.5 L 62.5 5.5 L 62.5 13.5 L 43.5 13.5 Z M 43.5 5.5 "/>
<path fill-rule="nonzero" fill="rgb(14.020032%, 54.508108%, 55.056325%)" fill-opacity="1" d="M 62.5 5.5 L 81.5 5.5 L 81.5 13.5 L 62.5 13.5 Z M 62.5 5.5 "/>
<path fill-rule="nonzero" fill="rgb(23.106875%, 31.505324%, 54.189663%)" fill-opacity="1" d="M 81.5 5.5 L 100.5 5.5 L 100.5 13.5 L 81.5 13.5 Z M 81.5 5.5 "/>
<path fill-rule="nonzero" fill="rgb(24.54427%, 27.866654%, 53.333565%)" fill-opacity="1" d="M 100.5 5.5 L 119.5 5.5 L 119.5 13.5 L 100.5 13.5 Z M 100.5 5.5 "/>
<path fill-rule="nonzero" fill="rgb(13.208808%, 57.753001%, 54.47688%)" fill-opacity="1" d="M 119.5 5.5 L 138.5 5.5 L 138.5 13.5 L 119.5 13.5 Z M 119.5 5.5 "/>
<path fill-rule="nonzero" fill="rgb(16.699205%, 46.73236%, 55.686275%)" fill-opacity="1" d="M 5.5 13.5 L 24.5 13.5 L 24.5 21.5 L 5.5 21.5 Z M 5.5 13.5 "/>
<path fill-rule="nonzero" fill="rgb(22.755045%, 32.344305%, 54.324983%)" fill-opacity="1" d="M 24.5 13.5 L 43.5 13.5 L 43.5 21.5 L 24.5 21.5 Z M 24.5 13.5 "/>
<path fill-rule="nonzero" fill="rgb(22.430278%, 33.11875%, 54.449893%)" fill-opacity="1" d="M 43.5 13.5 L 62.5 13.5 L 62.5 21.5 L 43.5 21.5 Z M 43.5 13.5 "/>
<path fill-rule="nonzero" fill="rgb(14.020032%, 54.508108%, 55.056325%)" fill-opacity="1" d="M 62.5 13.5 L 81.5 13.5 L 81.5 21.5 L 62.5 21.5 Z M 62.5 13.5 "/>
<path fill-rule="nonzero" fill="rgb(20.761336%, 37.098533%, 55.091794%)" fill-opacity="1" d="M 81.5 13.5 L 100.5 13.5 L 100.5 21.5 L 81.5 21.5 Z M 81.5 13.5 "/>
<path fill-rule="nonzero" fill="rgb(21.789765%, 34.646126%, 54.696244%)" fill-opacity="1" d="M 100.5 13.5 L 119.5 13.5 L 119.5 21.5 L 100.5 21.5 Z M 100.5 13.5 "/>
<path fill-rule="nonzero" fill="rgb(13.208808%, 57.753001%, 54.47688%)" fill-opacity="1" d="M 119.5 13.5 L 138.5 13.5 L 138.5 21.5 L 119.5 21.5 Z M 119.5 13.5 "/>
<path fill-rule="nonzero" fill="rgb(14.593232%, 52.215308%, 55.465754%)" fill-opacity="1" d="M 5.5 21.5 L 24.5 21.5 L 24.5 29.5 L 5.5 29.5 Z M 5.5 21.5 "/>
<path fill-rule="nonzero" fill="rgb(26.022376%, 22.988905%, 50.820784%)" fill-opacity="1" d="M 24.5 21.5 L 43.5 21.5 L 43.5 29.5 L 24.5 29.5 Z M 24.5 21.5 "/>
<path fill-rule="nonzero" fill="rgb(24.585907%, 27.729253%, 53.262782%)" fill-opacity="1" d="M 43.5 21.5 L 62.5 21.5 L 62.5 29.5 L 43.5 29.5 Z M 43.5 21.5 "/>
<path fill-rule="nonzero" fill="rgb(14.476649%, 52.68164%, 55.38248%)" fill-opacity="1" d="M 62.5 21.5 L 81.5 21.5 L 81.5 29.5 L 62.5 29.5 Z M 62.5 21.5 "/>
<path fill-rule="nonzero" fill="rgb(25.515795%, 24.660622%, 51.681972%)" fill-opacity="1" d="M 81.5 21.5 L 100.5 21.5 L 100.5 29.5 L 81.5 29.5 Z M 81.5 21.5 "/>
<path fill-rule="nonzero" fill="rgb(14.709815%, 51.748976%, 55.549027%)" fill-opacity="1" d="M 100.5 21.5 L 119.5 21.5 L 119.5 29.5 L 100.5 29.5 Z M 100.5 21.5 "/>
<path fill-rule="nonzero" fill="rgb(26.938385%, 19.966074%, 49.263569%)" fill-opacity="1" d="M 119.5 21.5 L 138.5 21.5 L 138.5 29.5 L 119.5 29.5 Z M 119.5 21.5 "/>
<path fill-rule="nonzero" fill="rgb(16.1954%, 47.923172%, 55.686275%)" fill-opacity="1" d="M 5.5 29.5 L 24.5 29.5 L 24.5 37.5 L 5.5 37.5 Z M 5.5 29.5 "/>
<path fill-rule="nonzero" fill="rgb(16.1725%, 47.9773%, 55.686275%)" fill-opacity="1" d="M 24.5 29.5 L 43.5 29.5 L 43.5 37.5 L 24.5 37.5 Z M 24.5 29.5 "/>
<path fill-rule="nonzero" fill="rgb(22.430278%, 33.11875%, 54.449893%)" fill-opacity="1" d="M 43.5 29.5 L 62.5 29.5 L 62.5 37.5 L 43.5 37.5 Z M 43.5 29.5 "/>
<path fill-rule="nonzero" fill="rgb(25.855829%, 23.53851%, 51.103915%)" fill-opacity="1" d="M 62.5 29.5 L 81.5 29.5 L 81.5 37.5 L 62.5 37.5 Z M 62.5 29.5 "/>
<path fill-rule="nonzero" fill="rgb(17.867117%, 43.971841%, 55.686275%)" fill-opacity="1" d="M 81.5 29.5 L 100.5 29.5 L 100.5 37.5 L 81.5 37.5 Z M 81.5 29.5 "/>
<path fill-rule="nonzero" fill="rgb(12.455877%, 60.764729%, 53.939071%)" fill-opacity="1" d="M 100.5 29.5 L 119.5 29.5 L 119.5 37.5 L 100.5 37.5 Z M 100.5 29.5 "/>
<path fill-rule="nonzero" fill="rgb(26.938385%, 19.966074%, 49.263569%)" fill-opacity="1" d="M 119.5 29.5 L 138.5 29.5 L 138.5 37.5 L 119.5 37.5 Z M 119.5 29.5 "/>
<path fill-rule="nonzero" fill="rgb(19.687801%, 39.658501%, 55.504692%)" fill-opacity="1" d="M 5.5 37.5 L 24.5 37.5 L 24.5 45.5 L 5.5 45.5 Z M 5.5 37.5 "/>
<path fill-rule="nonzero" fill="rgb(13.552929%, 63.547223%, 52.710169%)" fill-opacity="1" d="M 24.5 37.5 L 43.5 37.5 L 43.5 45.5 L 24.5 45.5 Z M 24.5 37.5 "/>
<path fill-rule="nonzero" fill="rgb(14.772964%, 51.49638%, 55.594134%)" fill-opacity="1" d="M 43.5 37.5 L 62.5 37.5 L 62.5 45.5 L 43.5 45.5 Z M 43.5 37.5 "/>
<path fill-rule="nonzero" fill="rgb(24.946759%, 26.538441%, 52.649333%)" fill-opacity="1" d="M 62.5 37.5 L 81.5 37.5 L 81.5 45.5 L 62.5 45.5 Z M 62.5 37.5 "/>
<path fill-rule="nonzero" fill="rgb(16.111432%, 48.121641%, 55.686275%)" fill-opacity="1" d="M 81.5 37.5 L 100.5 37.5 L 100.5 45.5 L 81.5 45.5 Z M 81.5 37.5 "/>
<path fill-rule="nonzero" fill="rgb(21.789765%, 34.646126%, 54.696244%)" fill-opacity="1" d="M 100.5 37.5 L 119.5 37.5 L 119.5 45.5 L 100.5 45.5 Z M 100.5 37.5 "/>
<path fill-rule="nonzero" fill="rgb(22.141596%, 33.807145%, 54.560925%)" fill-opacity="1" d="M 119.5 37.5 L 138.5 37.5 L 138.5 45.5 L 119.5 45.5 Z M 119.5 37.5 "/>
<path fill-rule="nonzero" fill="rgb(20.58091%, 37.52878%, 55.161188%)" fill-opacity="1" d="M 5.5 45.5 L 24.5 45.5 L 24.5 53.5 L 5.5 53.5 Z M 5.5 45.5 "/>
<path fill-rule="nonzero" fill="rgb(18.202987%, 43.177966%, 55.686275%)" fill-opacity="1" d="M 24.5 45.5 L 43.5 45.5 L 43.5 53.5 L 24.5 53.5 Z M 24.5 45.5 "/>
<path fill-rule="nonzero" fill="rgb(23.088833%, 31.548349%, 54.196603%)" fill-opacity="1" d="M 43.5 45.5 L 62.5 45.5 L 62.5 53.5 L 43.5 53.5 Z M 43.5 45.5 "/>
<path fill-rule="nonzero" fill="rgb(27.524385%, 8.754906%, 40.660637%)" fill-opacity="1" d="M 62.5 45.5 L 81.5 45.5 L 81.5 53.5 L 62.5 53.5 Z M 62.5 45.5 "/>
<path fill-rule="nonzero" fill="rgb(15.958764%, 48.482493%, 55.686275%)" fill-opacity="1" d="M 81.5 45.5 L 100.5 45.5 L 100.5 53.5 L 81.5 53.5 Z M 81.5 45.5 "/>
<path fill-rule="nonzero" fill="rgb(17.888706%, 68.474243%, 49.556877%)" fill-opacity="1" d="M 100.5 45.5 L 119.5 45.5 L 119.5 53.5 L 100.5 53.5 Z M 100.5 45.5 "/>
<path fill-rule="nonzero" fill="rgb(26.938385%, 19.966074%, 49.263569%)" fill-opacity="1" d="M 119.5 45.5 L 138.5 45.5 L 138.5 53.5 L 119.5 53.5 Z M 119.5 45.5 "/>
<path fill-rule="nonzero" fill="rgb(25.821131%, 23.653011%, 51.1629%)" fill-opacity="1" d="M 5.5 53.5 L 24.5 53.5 L 24.5 61.5 L 5.5 61.5 Z M 5.5 53.5 "/>
<path fill-rule="nonzero" fill="rgb(13.552929%, 63.547223%, 52.710169%)" fill-opacity="1" d="M 24.5 53.5 L 43.5 53.5 L 43.5 61.5 L 24.5 61.5 Z M 24.5 53.5 "/>
<path fill-rule="nonzero" fill="rgb(19.522256%, 70.33055%, 48.36884%)" fill-opacity="1" d="M 43.5 53.5 L 62.5 53.5 L 62.5 61.5 L 43.5 61.5 Z M 43.5 53.5 "/>
<path fill-rule="nonzero" fill="rgb(24.126283%, 29.07443%, 53.797584%)" fill-opacity="1" d="M 62.5 53.5 L 81.5 53.5 L 81.5 61.5 L 62.5 61.5 Z M 62.5 53.5 "/>
<path fill-rule="nonzero" fill="rgb(15.096189%, 50.521308%, 55.686275%)" fill-opacity="1" d="M 81.5 53.5 L 100.5 53.5 L 100.5 61.5 L 81.5 61.5 Z M 81.5 53.5 "/>
<path fill-rule="nonzero" fill="rgb(26.952264%, 19.920273%, 49.239974%)" fill-opacity="1" d="M 100.5 53.5 L 119.5 53.5 L 119.5 61.5 L 100.5 61.5 Z M 100.5 53.5 "/>
<path fill-rule="nonzero" fill="rgb(13.208808%, 57.753001%, 54.47688%)" fill-opacity="1" d="M 119.5 53.5 L 138.5 53.5 L 138.5 61.5 L 119.5 61.5 Z M 119.5 53.5 "/>
<path fill-rule="nonzero" fill="rgb(13.305961%, 57.364391%, 54.546275%)" fill-opacity="1" d="M 5.5 61.5 L 24.5 61.5 L 24.5 69.5 L 5.5 69.5 Z M 5.5 61.5 "/>
<path fill-rule="nonzero" fill="rgb(23.720324%, 30.042485%, 53.953721%)" fill-opacity="1" d="M 24.5 61.5 L 43.5 61.5 L 43.5 69.5 L 24.5 69.5 Z M 24.5 61.5 "/>
<path fill-rule="nonzero" fill="rgb(27.722545%, 17.378347%, 47.930497%)" fill-opacity="1" d="M 43.5 61.5 L 62.5 61.5 L 62.5 69.5 L 43.5 69.5 Z M 43.5 61.5 "/>
<path fill-rule="nonzero" fill="rgb(16.516003%, 47.165383%, 55.686275%)" fill-opacity="1" d="M 62.5 61.5 L 81.5 61.5 L 81.5 69.5 L 62.5 69.5 Z M 62.5 61.5 "/>
<path fill-rule="nonzero" fill="rgb(18.065586%, 43.502733%, 55.686275%)" fill-opacity="1" d="M 81.5 61.5 L 100.5 61.5 L 100.5 69.5 L 81.5 69.5 Z M 81.5 61.5 "/>
<path fill-rule="nonzero" fill="rgb(16.010887%, 66.340358%, 50.922563%)" fill-opacity="1" d="M 100.5 61.5 L 119.5 61.5 L 119.5 69.5 L 100.5 69.5 Z M 100.5 61.5 "/>
<path fill-rule="nonzero" fill="rgb(22.141596%, 33.807145%, 54.560925%)" fill-opacity="1" d="M 119.5 61.5 L 138.5 61.5 L 138.5 69.5 L 119.5 69.5 Z M 119.5 61.5 "/>
<path fill-rule="nonzero" fill="rgb(14.593232%, 52.215308%, 55.465754%)" fill-opacity="1" d="M 5.5 69.5 L 24.5 69.5 L 24.5 77.5 L 5.5 77.5 Z M 5.5 69.5 "/>
<path fill-rule="nonzero" fill="rgb(24.153347%, 29.009893%, 53.787174%)" fill-opacity="1" d="M 24.5 69.5 L 43.5 69.5 L 43.5 77.5 L 24.5 77.5 Z M 24.5 69.5 "/>
<path fill-rule="nonzero" fill="rgb(24.384662%, 28.39336%, 53.604898%)" fill-opacity="1" d="M 43.5 69.5 L 62.5 69.5 L 62.5 77.5 L 43.5 77.5 Z M 43.5 69.5 "/>
<path fill-rule="nonzero" fill="rgb(13.8403%, 55.227036%, 54.927945%)" fill-opacity="1" d="M 62.5 69.5 L 81.5 69.5 L 81.5 77.5 L 62.5 77.5 Z M 62.5 69.5 "/>
<path fill-rule="nonzero" fill="rgb(18.378556%, 42.762986%, 55.686275%)" fill-opacity="1" d="M 81.5 69.5 L 100.5 69.5 L 100.5 77.5 L 81.5 77.5 Z M 81.5 69.5 "/>
<path fill-rule="nonzero" fill="rgb(79.712321%, 88.183711%, 16.37999%)" fill-opacity="1" d="M 100.5 69.5 L 119.5 69.5 L 119.5 77.5 L 100.5 77.5 Z M 100.5 69.5 "/>
<path fill-rule="nonzero" fill="rgb(22.141596%, 33.807145%, 54.560925%)" fill-opacity="1" d="M 119.5 69.5 L 138.5 69.5 L 138.5 77.5 L 119.5 77.5 Z M 119.5 69.5 "/>
<path fill-rule="nonzero" fill="rgb(18.981595%, 41.33762%, 55.686275%)" fill-opacity="1" d="M 5.5 77.5 L 24.5 77.5 L 24.5 85.5 L 5.5 85.5 Z M 5.5 77.5 "/>
<path fill-rule="nonzero" fill="rgb(22.195724%, 33.678071%, 54.540106%)" fill-opacity="1" d="M 24.5 77.5 L 43.5 77.5 L 43.5 85.5 L 24.5 85.5 Z M 24.5 77.5 "/>
<path fill-rule="nonzero" fill="rgb(20.71623%, 37.206094%, 55.109142%)" fill-opacity="1" d="M 43.5 77.5 L 62.5 77.5 L 62.5 85.5 L 43.5 85.5 Z M 43.5 77.5 "/>
<path fill-rule="nonzero" fill="rgb(13.8403%, 55.227036%, 54.927945%)" fill-opacity="1" d="M 62.5 77.5 L 81.5 77.5 L 81.5 85.5 L 62.5 85.5 Z M 62.5 77.5 "/>
<path fill-rule="nonzero" fill="rgb(16.111432%, 48.121641%, 55.686275%)" fill-opacity="1" d="M 81.5 77.5 L 100.5 77.5 L 100.5 85.5 L 81.5 85.5 Z M 81.5 77.5 "/>
<path fill-rule="nonzero" fill="rgb(15.920597%, 48.572706%, 55.686275%)" fill-opacity="1" d="M 100.5 77.5 L 119.5 77.5 L 119.5 85.5 L 100.5 85.5 Z M 100.5 77.5 "/>
<path fill-rule="nonzero" fill="rgb(13.208808%, 57.753001%, 54.47688%)" fill-opacity="1" d="M 119.5 77.5 L 138.5 77.5 L 138.5 85.5 L 119.5 85.5 Z M 119.5 77.5 "/>
<path fill-rule="nonzero" fill="rgb(21.031976%, 36.453162%, 54.987702%)" fill-opacity="1" d="M 5.5 85.5 L 24.5 85.5 L 24.5 93.5 L 5.5 93.5 Z M 5.5 85.5 "/>
<path fill-rule="nonzero" fill="rgb(22.195724%, 33.678071%, 54.540106%)" fill-opacity="1" d="M 24.5 85.5 L 43.5 85.5 L 43.5 93.5 L 24.5 93.5 Z M 24.5 85.5 "/>
<path fill-rule="nonzero" fill="rgb(20.71623%, 37.206094%, 55.109142%)" fill-opacity="1" d="M 43.5 85.5 L 62.5 85.5 L 62.5 93.5 L 43.5 93.5 Z M 43.5 85.5 "/>
<path fill-rule="nonzero" fill="rgb(13.8403%, 55.227036%, 54.927945%)" fill-opacity="1" d="M 62.5 85.5 L 81.5 85.5 L 81.5 93.5 L 62.5 93.5 Z M 62.5 85.5 "/>
<path fill-rule="nonzero" fill="rgb(16.111432%, 48.121641%, 55.686275%)" fill-opacity="1" d="M 81.5 85.5 L 100.5 85.5 L 100.5 93.5 L 81.5 93.5 Z M 81.5 85.5 "/>
<path fill-rule="nonzero" fill="rgb(13.922879%, 54.896718%, 54.986931%)" fill-opacity="1" d="M 100.5 85.5 L 119.5 85.5 L 119.5 93.5 L 100.5 93.5 Z M 100.5 85.5 "/>
<path fill-rule="nonzero" fill="rgb(13.208808%, 57.753001%, 54.47688%)" fill-opacity="1" d="M 119.5 85.5 L 138.5 85.5 L 138.5 93.5 L 119.5 93.5 Z M 119.5 85.5 "/>
<path fill-rule="nonzero" fill="rgb(23.124918%, 31.462299%, 54.182724%)" fill-opacity="1" d="M 5.5 93.5 L 24.5 93.5 L 24.5 101.5 L 5.5 101.5 Z M 5.5 93.5 "/>
<path fill-rule="nonzero" fill="rgb(15.073288%, 50.575436%, 55.686275%)" fill-opacity="1" d="M 24.5 93.5 L 43.5 93.5 L 43.5 101.5 L 24.5 101.5 Z M 24.5 93.5 "/>
<path fill-rule="nonzero" fill="rgb(14.418357%, 52.914807%, 55.340843%)" fill-opacity="1" d="M 43.5 93.5 L 62.5 93.5 L 62.5 101.5 L 43.5 101.5 Z M 43.5 93.5 "/>
<path fill-rule="nonzero" fill="rgb(25.987679%, 23.103406%, 50.87977%)" fill-opacity="1" d="M 62.5 93.5 L 81.5 93.5 L 81.5 101.5 L 62.5 101.5 Z M 62.5 93.5 "/>
<path fill-rule="nonzero" fill="rgb(12.543314%, 60.41498%, 54.001527%)" fill-opacity="1" d="M 81.5 93.5 L 100.5 93.5 L 100.5 101.5 L 81.5 101.5 Z M 81.5 93.5 "/>
<path fill-rule="nonzero" fill="rgb(19.868227%, 39.228254%, 55.435297%)" fill-opacity="1" d="M 100.5 93.5 L 119.5 93.5 L 119.5 101.5 L 100.5 101.5 Z M 100.5 93.5 "/>
<path fill-rule="nonzero" fill="rgb(16.966374%, 46.100869%, 55.686275%)" fill-opacity="1" d="M 119.5 93.5 L 138.5 93.5 L 138.5 101.5 L 119.5 101.5 Z M 119.5 93.5 "/>
<path fill-rule="nonzero" fill="rgb(21.780744%, 34.667638%, 54.699714%)" fill-opacity="1" d="M 5.5 101.5 L 24.5 101.5 L 24.5 109.5 L 5.5 109.5 Z M 5.5 101.5 "/>
<path fill-rule="nonzero" fill="rgb(15.073288%, 50.575436%, 55.686275%)" fill-opacity="1" d="M 24.5 101.5 L 43.5 101.5 L 43.5 109.5 L 24.5 109.5 Z M 24.5 101.5 "/>
<path fill-rule="nonzero" fill="rgb(14.418357%, 52.914807%, 55.340843%)" fill-opacity="1" d="M 43.5 101.5 L 62.5 101.5 L 62.5 109.5 L 43.5 109.5 Z M 43.5 101.5 "/>
<path fill-rule="nonzero" fill="rgb(25.987679%, 23.103406%, 50.87977%)" fill-opacity="1" d="M 62.5 101.5 L 81.5 101.5 L 81.5 109.5 L 62.5 109.5 Z M 62.5 101.5 "/>
<path fill-rule="nonzero" fill="rgb(14.233767%, 53.653166%, 55.208994%)" fill-opacity="1" d="M 81.5 101.5 L 100.5 101.5 L 100.5 109.5 L 81.5 109.5 Z M 81.5 101.5 "/>
<path fill-rule="nonzero" fill="rgb(18.912894%, 41.500004%, 55.686275%)" fill-opacity="1" d="M 100.5 101.5 L 119.5 101.5 L 119.5 109.5 L 100.5 109.5 Z M 100.5 101.5 "/>
<path fill-rule="nonzero" fill="rgb(16.966374%, 46.100869%, 55.686275%)" fill-opacity="1" d="M 119.5 101.5 L 138.5 101.5 L 138.5 109.5 L 119.5 109.5 Z M 119.5 101.5 "/>
<path fill-rule="nonzero" fill="rgb(24.780212%, 27.088046%, 52.932464%)" fill-opacity="1" d="M 5.5 109.5 L 24.5 109.5 L 24.5 117.5 L 5.5 117.5 Z M 5.5 109.5 "/>
<path fill-rule="nonzero" fill="rgb(15.073288%, 50.575436%, 55.686275%)" fill-opacity="1" d="M 24.5 109.5 L 43.5 109.5 L 43.5 117.5 L 24.5 117.5 Z M 24.5 109.5 "/>
<path fill-rule="nonzero" fill="rgb(14.418357%, 52.914807%, 55.340843%)" fill-opacity="1" d="M 43.5 109.5 L 62.5 109.5 L 62.5 117.5 L 43.5 117.5 Z M 43.5 109.5 "/>
<path fill-rule="nonzero" fill="rgb(25.987679%, 23.103406%, 50.87977%)" fill-opacity="1" d="M 62.5 109.5 L 81.5 109.5 L 81.5 117.5 L 62.5 117.5 Z M 62.5 109.5 "/>
<path fill-rule="nonzero" fill="rgb(13.986029%, 54.644121%, 55.032037%)" fill-opacity="1" d="M 81.5 109.5 L 100.5 109.5 L 100.5 117.5 L 81.5 117.5 Z M 81.5 109.5 "/>
<path fill-rule="nonzero" fill="rgb(17.20301%, 45.541548%, 55.686275%)" fill-opacity="1" d="M 100.5 109.5 L 119.5 109.5 L 119.5 117.5 L 100.5 117.5 Z M 100.5 109.5 "/>
<path fill-rule="nonzero" fill="rgb(16.966374%, 46.100869%, 55.686275%)" fill-opacity="1" d="M 119.5 109.5 L 138.5 109.5 L 138.5 117.5 L 119.5 117.5 Z M 119.5 109.5 "/>
<path fill-rule="nonzero" fill="rgb(27.405026%, 7.591158%, 39.586408%)" fill-opacity="1" d="M 5.5 117.5 L 24.5 117.5 L 24.5 125.5 L 5.5 125.5 Z M 5.5 117.5 "/>
<path fill-rule="nonzero" fill="rgb(37.507498%, 78.334528%, 37.894875%)" fill-opacity="1" d="M 24.5 117.5 L 43.5 117.5 L 43.5 125.5 L 24.5 125.5 Z M 24.5 117.5 "/>
<path fill-rule="nonzero" fill="rgb(12.650182%, 59.987509%, 54.077861%)" fill-opacity="1" d="M 43.5 117.5 L 62.5 117.5 L 62.5 125.5 L 43.5 125.5 Z M 43.5 117.5 "/>
<path fill-rule="nonzero" fill="rgb(27.805818%, 17.103545%, 47.788932%)" fill-opacity="1" d="M 62.5 117.5 L 81.5 117.5 L 81.5 125.5 L 62.5 125.5 Z M 62.5 117.5 "/>
<path fill-rule="nonzero" fill="rgb(42.59829%, 80.334482%, 34.985851%)" fill-opacity="1" d="M 81.5 117.5 L 100.5 117.5 L 100.5 125.5 L 81.5 125.5 Z M 81.5 117.5 "/>
<path fill-rule="nonzero" fill="rgb(17.294611%, 45.325037%, 55.686275%)" fill-opacity="1" d="M 100.5 117.5 L 119.5 117.5 L 119.5 125.5 L 100.5 125.5 Z M 100.5 117.5 "/>
<path fill-rule="nonzero" fill="rgb(13.208808%, 57.753001%, 54.47688%)" fill-opacity="1" d="M 119.5 117.5 L 138.5 117.5 L 138.5 125.5 L 119.5 125.5 Z M 119.5 117.5 "/>
<path fill-rule="nonzero" fill="rgb(27.405026%, 7.591158%, 39.586408%)" fill-opacity="1" d="M 5.5 125.5 L 24.5 125.5 L 24.5 133.5 L 5.5 133.5 Z M 5.5 125.5 "/>
<path fill-rule="nonzero" fill="rgb(33.737981%, 76.853647%, 40.048885%)" fill-opacity="1" d="M 24.5 125.5 L 43.5 125.5 L 43.5 133.5 L 24.5 133.5 Z M 24.5 125.5 "/>
<path fill-rule="nonzero" fill="rgb(12.835388%, 62.731836%, 53.232017%)" fill-opacity="1" d="M 43.5 125.5 L 62.5 125.5 L 62.5 133.5 L 43.5 133.5 Z M 43.5 125.5 "/>
<path fill-rule="nonzero" fill="rgb(26.896748%, 20.103475%, 49.334351%)" fill-opacity="1" d="M 62.5 125.5 L 81.5 125.5 L 81.5 133.5 L 62.5 133.5 Z M 62.5 125.5 "/>
<path fill-rule="nonzero" fill="rgb(51.279792%, 82.435675%, 29.492648%)" fill-opacity="1" d="M 81.5 125.5 L 100.5 125.5 L 100.5 133.5 L 81.5 133.5 Z M 81.5 125.5 "/>
<path fill-rule="nonzero" fill="rgb(17.973985%, 43.719245%, 55.686275%)" fill-opacity="1" d="M 100.5 125.5 L 119.5 125.5 L 119.5 133.5 L 100.5 133.5 Z M 100.5 125.5 "/>
<path fill-rule="nonzero" fill="rgb(13.208808%, 57.753001%, 54.47688%)" fill-opacity="1" d="M 119.5 125.5 L 138.5 125.5 L 138.5 133.5 L 119.5 133.5 Z M 119.5 125.5 "/>
<path fill-rule="nonzero" fill="rgb(25.356187%, 25.187327%, 51.953305%)" fill-opacity="1" d="M 5.5 133.5 L 24.5 133.5 L 24.5 141.5 L 5.5 141.5 Z M 5.5 133.5 "/>
<path fill-rule="nonzero" fill="rgb(27.48136%, 74.395688%, 43.624097%)" fill-opacity="1" d="M 24.5 133.5 L 43.5 133.5 L 43.5 141.5 L 24.5 141.5 Z M 24.5 133.5 "/>
<path fill-rule="nonzero" fill="rgb(16.178822%, 66.531193%, 50.800429%)" fill-opacity="1" d="M 43.5 133.5 L 62.5 133.5 L 62.5 141.5 L 43.5 141.5 Z M 43.5 133.5 "/>
<path fill-rule="nonzero" fill="rgb(23.792495%, 29.870386%, 53.925964%)" fill-opacity="1" d="M 62.5 133.5 L 81.5 133.5 L 81.5 141.5 L 62.5 141.5 Z M 62.5 133.5 "/>
<path fill-rule="nonzero" fill="rgb(47.338176%, 81.491908%, 31.990855%)" fill-opacity="1" d="M 81.5 133.5 L 100.5 133.5 L 100.5 141.5 L 81.5 141.5 Z M 81.5 133.5 "/>
<path fill-rule="nonzero" fill="rgb(19.768993%, 39.46489%, 55.473464%)" fill-opacity="1" d="M 100.5 133.5 L 119.5 133.5 L 119.5 141.5 L 100.5 141.5 Z M 100.5 133.5 "/>
<path fill-rule="nonzero" fill="rgb(13.208808%, 57.753001%, 54.47688%)" fill-opacity="1" d="M 119.5 133.5 L 138.5 133.5 L 138.5 141.5 L 119.5 141.5 Z M 119.5 133.5 "/>
<path fill-rule="nonzero" fill="rgb(41.199294%, 79.784877%, 35.785278%)" fill-opacity="1" d="M 5.5 141.5 L 24.5 141.5 L 24.5 149.5 L 5.5 149.5 Z M 5.5 141.5 "/>
<path fill-rule="nonzero" fill="rgb(27.667029%, 17.561549%, 48.024874%)" fill-opacity="1" d="M 24.5 141.5 L 43.5 141.5 L 43.5 149.5 L 24.5 149.5 Z M 24.5 141.5 "/>
<path fill-rule="nonzero" fill="rgb(27.320056%, 18.706561%, 48.614729%)" fill-opacity="1" d="M 43.5 141.5 L 62.5 141.5 L 62.5 149.5 L 43.5 149.5 Z M 43.5 141.5 "/>
<path fill-rule="nonzero" fill="rgb(12.38787%, 61.036756%, 53.890495%)" fill-opacity="1" d="M 62.5 141.5 L 81.5 141.5 L 81.5 149.5 L 62.5 149.5 Z M 62.5 141.5 "/>
<path fill-rule="nonzero" fill="rgb(26.369349%, 21.843893%, 50.23093%)" fill-opacity="1" d="M 81.5 141.5 L 100.5 141.5 L 100.5 149.5 L 81.5 149.5 Z M 81.5 141.5 "/>
<path fill-rule="nonzero" fill="rgb(12.373297%, 61.095048%, 53.880086%)" fill-opacity="1" d="M 100.5 141.5 L 119.5 141.5 L 119.5 149.5 L 100.5 149.5 Z M 100.5 141.5 "/>
<path fill-rule="nonzero" fill="rgb(26.938385%, 19.966074%, 49.263569%)" fill-opacity="1" d="M 119.5 141.5 L 138.5 141.5 L 138.5 149.5 L 119.5 149.5 Z M 119.5 141.5 "/>
<path fill-rule="nonzero" fill="rgb(28.336302%, 74.731558%, 43.135559%)" fill-opacity="1" d="M 5.5 149.5 L 24.5 149.5 L 24.5 157.5 L 5.5 157.5 Z M 5.5 149.5 "/>
<path fill-rule="nonzero" fill="rgb(27.833576%, 17.011944%, 47.741744%)" fill-opacity="1" d="M 24.5 149.5 L 43.5 149.5 L 43.5 157.5 L 24.5 157.5 Z M 24.5 149.5 "/>
<path fill-rule="nonzero" fill="rgb(28.035129%, 13.734666%, 45.257338%)" fill-opacity="1" d="M 43.5 149.5 L 62.5 149.5 L 62.5 157.5 L 43.5 157.5 Z M 43.5 149.5 "/>
<path fill-rule="nonzero" fill="rgb(63.055369%, 85.25518%, 22.029254%)" fill-opacity="1" d="M 62.5 149.5 L 81.5 149.5 L 81.5 157.5 L 62.5 157.5 Z M 62.5 149.5 "/>
<path fill-rule="nonzero" fill="rgb(27.321752%, 6.77924%, 38.836946%)" fill-opacity="1" d="M 81.5 149.5 L 100.5 149.5 L 100.5 157.5 L 81.5 157.5 Z M 81.5 149.5 "/>
<path fill-rule="nonzero" fill="rgb(14.981688%, 50.791947%, 55.686275%)" fill-opacity="1" d="M 100.5 149.5 L 119.5 149.5 L 119.5 157.5 L 100.5 157.5 Z M 100.5 149.5 "/>
<path fill-rule="nonzero" fill="rgb(22.141596%, 33.807145%, 54.560925%)" fill-opacity="1" d="M 119.5 149.5 L 138.5 149.5 L 138.5 157.5 L 119.5 157.5 Z M 119.5 149.5 "/>
<path fill-rule="nonzero" fill="rgb(53.053519%, 82.86037%, 28.368455%)" fill-opacity="1" d="M 5.5 157.5 L 24.5 157.5 L 24.5 165.5 L 5.5 165.5 Z M 5.5 157.5 "/>
<path fill-rule="nonzero" fill="rgb(28.090336%, 16.164635%, 47.305252%)" fill-opacity="1" d="M 24.5 157.5 L 43.5 157.5 L 43.5 165.5 L 24.5 165.5 Z M 24.5 157.5 "/>
<path fill-rule="nonzero" fill="rgb(27.417208%, 18.385958%, 48.449569%)" fill-opacity="1" d="M 43.5 157.5 L 62.5 157.5 L 62.5 165.5 L 43.5 165.5 Z M 43.5 157.5 "/>
<path fill-rule="nonzero" fill="rgb(15.430748%, 65.681108%, 51.344483%)" fill-opacity="1" d="M 62.5 157.5 L 81.5 157.5 L 81.5 165.5 L 62.5 165.5 Z M 62.5 157.5 "/>
<path fill-rule="nonzero" fill="rgb(27.946304%, 12.868621%, 44.457912%)" fill-opacity="1" d="M 81.5 157.5 L 100.5 157.5 L 100.5 165.5 L 81.5 165.5 Z M 81.5 157.5 "/>
<path fill-rule="nonzero" fill="rgb(15.155945%, 65.368833%, 51.544339%)" fill-opacity="1" d="M 100.5 157.5 L 119.5 157.5 L 119.5 165.5 L 100.5 165.5 Z M 100.5 157.5 "/>
<path fill-rule="nonzero" fill="rgb(26.938385%, 19.966074%, 49.263569%)" fill-opacity="1" d="M 119.5 157.5 L 138.5 157.5 L 138.5 165.5 L 119.5 165.5 Z M 119.5 157.5 "/>
<path fill-rule="nonzero" fill="rgb(16.065632%, 48.229897%, 55.686275%)" fill-opacity="1" d="M 5.5 165.5 L 24.5 165.5 L 24.5 173.5 L 5.5 173.5 Z M 5.5 165.5 "/>
<path fill-rule="nonzero" fill="rgb(25.349248%, 25.210227%, 51.965102%)" fill-opacity="1" d="M 24.5 165.5 L 43.5 165.5 L 43.5 173.5 L 24.5 173.5 Z M 24.5 165.5 "/>
<path fill-rule="nonzero" fill="rgb(24.144325%, 29.031405%, 53.790644%)" fill-opacity="1" d="M 43.5 165.5 L 62.5 165.5 L 62.5 173.5 L 43.5 173.5 Z M 43.5 165.5 "/>
<path fill-rule="nonzero" fill="rgb(16.378602%, 47.49015%, 55.686275%)" fill-opacity="1" d="M 62.5 165.5 L 81.5 165.5 L 81.5 173.5 L 62.5 173.5 Z M 62.5 165.5 "/>
<path fill-rule="nonzero" fill="rgb(24.488754%, 28.049856%, 53.427941%)" fill-opacity="1" d="M 81.5 165.5 L 100.5 165.5 L 100.5 173.5 L 81.5 173.5 Z M 81.5 165.5 "/>
<path fill-rule="nonzero" fill="rgb(16.087221%, 66.427101%, 50.867048%)" fill-opacity="1" d="M 100.5 165.5 L 119.5 165.5 L 119.5 173.5 L 100.5 173.5 Z M 100.5 165.5 "/>
<path fill-rule="nonzero" fill="rgb(26.938385%, 19.966074%, 49.263569%)" fill-opacity="1" d="M 119.5 165.5 L 138.5 165.5 L 138.5 173.5 L 119.5 173.5 Z M 119.5 165.5 "/>
<path fill-rule="nonzero" fill="rgb(24.440178%, 28.210158%, 53.510521%)" fill-opacity="1" d="M 5.5 173.5 L 24.5 173.5 L 24.5 181.5 L 5.5 181.5 Z M 5.5 173.5 "/>
<path fill-rule="nonzero" fill="rgb(13.359395%, 57.150656%, 54.584442%)" fill-opacity="1" d="M 24.5 173.5 L 43.5 173.5 L 43.5 181.5 L 24.5 181.5 Z M 24.5 173.5 "/>
<path fill-rule="nonzero" fill="rgb(17.485446%, 44.873972%, 55.686275%)" fill-opacity="1" d="M 43.5 173.5 L 62.5 173.5 L 62.5 181.5 L 43.5 181.5 Z M 43.5 173.5 "/>
<path fill-rule="nonzero" fill="rgb(27.524385%, 8.754906%, 40.660637%)" fill-opacity="1" d="M 62.5 173.5 L 81.5 173.5 L 81.5 181.5 L 62.5 181.5 Z M 62.5 173.5 "/>
<path fill-rule="nonzero" fill="rgb(15.493126%, 49.583092%, 55.686275%)" fill-opacity="1" d="M 81.5 173.5 L 100.5 173.5 L 100.5 181.5 L 81.5 181.5 Z M 81.5 173.5 "/>
<path fill-rule="nonzero" fill="rgb(22.547555%, 32.839089%, 54.404787%)" fill-opacity="1" d="M 100.5 173.5 L 119.5 173.5 L 119.5 181.5 L 100.5 181.5 Z M 100.5 173.5 "/>
<path fill-rule="nonzero" fill="rgb(22.141596%, 33.807145%, 54.560925%)" fill-opacity="1" d="M 119.5 173.5 L 138.5 173.5 L 138.5 181.5 L 119.5 181.5 Z M 119.5 173.5 "/>
<path fill-rule="nonzero" fill="rgb(24.780212%, 27.088046%, 52.932464%)" fill-opacity="1" d="M 5.5 181.5 L 24.5 181.5 L 24.5 189.5 L 5.5 189.5 Z M 5.5 181.5 "/>
<path fill-rule="nonzero" fill="rgb(13.908307%, 54.955009%, 54.976521%)" fill-opacity="1" d="M 24.5 181.5 L 43.5 181.5 L 43.5 189.5 L 24.5 189.5 Z M 24.5 181.5 "/>
<path fill-rule="nonzero" fill="rgb(17.485446%, 44.873972%, 55.686275%)" fill-opacity="1" d="M 43.5 181.5 L 62.5 181.5 L 62.5 189.5 L 43.5 189.5 Z M 43.5 181.5 "/>
<path fill-rule="nonzero" fill="rgb(24.946759%, 26.538441%, 52.649333%)" fill-opacity="1" d="M 62.5 181.5 L 81.5 181.5 L 81.5 189.5 L 62.5 189.5 Z M 62.5 181.5 "/>
<path fill-rule="nonzero" fill="rgb(16.149599%, 48.031428%, 55.686275%)" fill-opacity="1" d="M 81.5 181.5 L 100.5 181.5 L 100.5 189.5 L 81.5 189.5 Z M 81.5 181.5 "/>
<path fill-rule="nonzero" fill="rgb(20.37342%, 38.023563%, 55.240992%)" fill-opacity="1" d="M 100.5 181.5 L 119.5 181.5 L 119.5 189.5 L 100.5 189.5 Z M 100.5 181.5 "/>
<path fill-rule="nonzero" fill="rgb(22.141596%, 33.807145%, 54.560925%)" fill-opacity="1" d="M 119.5 181.5 L 138.5 181.5 L 138.5 189.5 L 119.5 189.5 Z M 119.5 181.5 "/>
<path fill-rule="nonzero" fill="rgb(26.973083%, 19.851573%, 49.204583%)" fill-opacity="1" d="M 5.5 189.5 L 24.5 189.5 L 24.5 197.5 L 5.5 197.5 Z M 5.5 189.5 "/>
<path fill-rule="nonzero" fill="rgb(12.316316%, 62.141981%, 53.609524%)" fill-opacity="1" d="M 24.5 189.5 L 43.5 189.5 L 43.5 197.5 L 24.5 197.5 Z M 24.5 189.5 "/>
<path fill-rule="nonzero" fill="rgb(19.522256%, 70.33055%, 48.36884%)" fill-opacity="1" d="M 43.5 189.5 L 62.5 189.5 L 62.5 197.5 L 43.5 197.5 Z M 43.5 189.5 "/>
<path fill-rule="nonzero" fill="rgb(15.943497%, 48.518578%, 55.686275%)" fill-opacity="1" d="M 62.5 189.5 L 81.5 189.5 L 81.5 197.5 L 62.5 197.5 Z M 62.5 189.5 "/>
<path fill-rule="nonzero" fill="rgb(13.689713%, 55.829382%, 54.820384%)" fill-opacity="1" d="M 81.5 189.5 L 100.5 189.5 L 100.5 197.5 L 81.5 197.5 Z M 81.5 189.5 "/>
<path fill-rule="nonzero" fill="rgb(28.079542%, 14.167688%, 45.657052%)" fill-opacity="1" d="M 100.5 189.5 L 119.5 189.5 L 119.5 197.5 L 100.5 197.5 Z M 100.5 189.5 "/>
<path fill-rule="nonzero" fill="rgb(13.208808%, 57.753001%, 54.47688%)" fill-opacity="1" d="M 119.5 189.5 L 138.5 189.5 L 138.5 197.5 L 119.5 197.5 Z M 119.5 189.5 "/>
<path fill-rule="nonzero" fill="rgb(18.981595%, 41.33762%, 55.686275%)" fill-opacity="1" d="M 5.5 197.5 L 24.5 197.5 L 24.5 205.5 L 5.5 205.5 Z M 5.5 197.5 "/>
<path fill-rule="nonzero" fill="rgb(18.484112%, 69.150841%, 49.123854%)" fill-opacity="1" d="M 24.5 197.5 L 43.5 197.5 L 43.5 205.5 L 24.5 205.5 Z M 24.5 197.5 "/>
<path fill-rule="nonzero" fill="rgb(14.772964%, 51.49638%, 55.594134%)" fill-opacity="1" d="M 43.5 197.5 L 62.5 197.5 L 62.5 205.5 L 43.5 205.5 Z M 43.5 197.5 "/>
<path fill-rule="nonzero" fill="rgb(25.855829%, 23.53851%, 51.103915%)" fill-opacity="1" d="M 62.5 197.5 L 81.5 197.5 L 81.5 205.5 L 62.5 205.5 Z M 62.5 197.5 "/>
<path fill-rule="nonzero" fill="rgb(13.660568%, 55.945965%, 54.799565%)" fill-opacity="1" d="M 81.5 197.5 L 100.5 197.5 L 100.5 205.5 L 81.5 205.5 Z M 81.5 197.5 "/>
<path fill-rule="nonzero" fill="rgb(21.636403%, 35.011836%, 54.75523%)" fill-opacity="1" d="M 100.5 197.5 L 119.5 197.5 L 119.5 205.5 L 100.5 205.5 Z M 100.5 197.5 "/>
<path fill-rule="nonzero" fill="rgb(22.141596%, 33.807145%, 54.560925%)" fill-opacity="1" d="M 119.5 197.5 L 138.5 197.5 L 138.5 205.5 L 119.5 205.5 Z M 119.5 197.5 "/>
<path fill-rule="nonzero" fill="rgb(15.888753%, 66.201568%, 51.011388%)" fill-opacity="1" d="M 5.5 205.5 L 24.5 205.5 L 24.5 213.5 L 5.5 213.5 Z M 5.5 205.5 "/>
<path fill-rule="nonzero" fill="rgb(27.646211%, 17.63025%, 48.060265%)" fill-opacity="1" d="M 24.5 205.5 L 43.5 205.5 L 43.5 213.5 L 24.5 213.5 Z M 24.5 205.5 "/>
<path fill-rule="nonzero" fill="rgb(27.320056%, 18.706561%, 48.614729%)" fill-opacity="1" d="M 43.5 205.5 L 62.5 205.5 L 62.5 213.5 L 43.5 213.5 Z M 43.5 205.5 "/>
<path fill-rule="nonzero" fill="rgb(12.38787%, 61.036756%, 53.890495%)" fill-opacity="1" d="M 62.5 205.5 L 81.5 205.5 L 81.5 213.5 L 62.5 213.5 Z M 62.5 205.5 "/>
<path fill-rule="nonzero" fill="rgb(28.23221%, 15.656203%, 47.031066%)" fill-opacity="1" d="M 81.5 205.5 L 100.5 205.5 L 100.5 213.5 L 81.5 213.5 Z M 81.5 205.5 "/>
<path fill-rule="nonzero" fill="rgb(13.922879%, 54.896718%, 54.986931%)" fill-opacity="1" d="M 100.5 205.5 L 119.5 205.5 L 119.5 213.5 L 100.5 213.5 Z M 100.5 205.5 "/>
<path fill-rule="nonzero" fill="rgb(26.938385%, 19.966074%, 49.263569%)" fill-opacity="1" d="M 119.5 205.5 L 138.5 205.5 L 138.5 213.5 L 119.5 213.5 Z M 119.5 205.5 "/>
<path fill-rule="nonzero" fill="rgb(12.591119%, 62.454257%, 53.409667%)" fill-opacity="1" d="M 5.5 213.5 L 24.5 213.5 L 24.5 221.5 L 5.5 221.5 Z M 5.5 213.5 "/>
<path fill-rule="nonzero" fill="rgb(25.335369%, 25.256028%, 51.988696%)" fill-opacity="1" d="M 24.5 213.5 L 43.5 213.5 L 43.5 221.5 L 24.5 221.5 Z M 24.5 213.5 "/>
<path fill-rule="nonzero" fill="rgb(24.787151%, 27.065146%, 52.920666%)" fill-opacity="1" d="M 43.5 213.5 L 62.5 213.5 L 62.5 221.5 L 43.5 221.5 Z M 43.5 213.5 "/>
<path fill-rule="nonzero" fill="rgb(22.429429%, 72.411001%, 46.510914%)" fill-opacity="1" d="M 62.5 213.5 L 81.5 213.5 L 81.5 221.5 L 62.5 221.5 Z M 62.5 213.5 "/>
<path fill-rule="nonzero" fill="rgb(26.792657%, 20.446979%, 49.511307%)" fill-opacity="1" d="M 81.5 213.5 L 100.5 213.5 L 100.5 221.5 L 81.5 221.5 Z M 81.5 213.5 "/>
<path fill-rule="nonzero" fill="rgb(23.404579%, 30.795417%, 54.075162%)" fill-opacity="1" d="M 100.5 213.5 L 119.5 213.5 L 119.5 221.5 L 100.5 221.5 Z M 100.5 213.5 "/>
<path fill-rule="nonzero" fill="rgb(22.141596%, 33.807145%, 54.560925%)" fill-opacity="1" d="M 119.5 213.5 L 138.5 213.5 L 138.5 221.5 L 119.5 221.5 Z M 119.5 213.5 "/>
<path fill-rule="nonzero" fill="rgb(28.336302%, 74.731558%, 43.135559%)" fill-opacity="1" d="M 5.5 221.5 L 24.5 221.5 L 24.5 229.5 L 5.5 229.5 Z M 5.5 221.5 "/>
<path fill-rule="nonzero" fill="rgb(26.74408%, 20.60728%, 49.593887%)" fill-opacity="1" d="M 24.5 221.5 L 43.5 221.5 L 43.5 229.5 L 24.5 229.5 Z M 24.5 221.5 "/>
<path fill-rule="nonzero" fill="rgb(22.03334%, 34.065293%, 54.602561%)" fill-opacity="1" d="M 43.5 221.5 L 62.5 221.5 L 62.5 229.5 L 43.5 229.5 Z M 43.5 221.5 "/>
<path fill-rule="nonzero" fill="rgb(15.378625%, 49.853732%, 55.686275%)" fill-opacity="1" d="M 62.5 221.5 L 81.5 221.5 L 81.5 229.5 L 62.5 229.5 Z M 62.5 221.5 "/>
<path fill-rule="nonzero" fill="rgb(27.03307%, 3.964593%, 36.23881%)" fill-opacity="1" d="M 81.5 221.5 L 100.5 221.5 L 100.5 229.5 L 81.5 229.5 Z M 81.5 221.5 "/>
<path fill-rule="nonzero" fill="rgb(22.394192%, 33.204799%, 54.463772%)" fill-opacity="1" d="M 100.5 221.5 L 119.5 221.5 L 119.5 229.5 L 100.5 229.5 Z M 100.5 221.5 "/>
<path fill-rule="nonzero" fill="rgb(22.141596%, 33.807145%, 54.560925%)" fill-opacity="1" d="M 119.5 221.5 L 138.5 221.5 L 138.5 229.5 L 119.5 229.5 Z M 119.5 221.5 "/>
<path fill-rule="nonzero" fill="rgb(24.027048%, 29.311065%, 53.835751%)" fill-opacity="1" d="M 5.5 229.5 L 24.5 229.5 L 24.5 237.5 L 5.5 237.5 Z M 5.5 229.5 "/>
<path fill-rule="nonzero" fill="rgb(12.438451%, 62.280771%, 53.520699%)" fill-opacity="1" d="M 24.5 229.5 L 43.5 229.5 L 43.5 237.5 L 24.5 237.5 Z M 24.5 229.5 "/>
<path fill-rule="nonzero" fill="rgb(28.336302%, 74.731558%, 43.135559%)" fill-opacity="1" d="M 43.5 229.5 L 62.5 229.5 L 62.5 237.5 L 43.5 237.5 Z M 43.5 229.5 "/>
<path fill-rule="nonzero" fill="rgb(15.430748%, 65.681108%, 51.344483%)" fill-opacity="1" d="M 62.5 229.5 L 81.5 229.5 L 81.5 237.5 L 62.5 237.5 Z M 62.5 229.5 "/>
<path fill-rule="nonzero" fill="rgb(18.218254%, 43.141881%, 55.686275%)" fill-opacity="1" d="M 81.5 229.5 L 100.5 229.5 L 100.5 237.5 L 81.5 237.5 Z M 81.5 229.5 "/>
<path fill-rule="nonzero" fill="rgb(26.666667%, 0.392157%, 32.941176%)" fill-opacity="1" d="M 100.5 229.5 L 119.5 229.5 L 119.5 237.5 L 100.5 237.5 Z M 100.5 229.5 "/>
<path fill-rule="nonzero" fill="rgb(13.208808%, 57.753001%, 54.47688%)" fill-opacity="1" d="M 119.5 229.5 L 138.5 229.5 L 138.5 237.5 L 119.5 237.5 Z M 119.5 229.5 "/>
<path fill-rule="nonzero" fill="rgb(18.348022%, 42.835157%, 55.686275%)" fill-opacity="1" d="M 5.5 237.5 L 24.5 237.5 L 24.5 245.5 L 5.5 245.5 Z M 5.5 237.5 "/>
<path fill-rule="nonzero" fill="rgb(23.846622%, 29.741312%, 53.905145%)" fill-opacity="1" d="M 24.5 237.5 L 43.5 237.5 L 43.5 245.5 L 24.5 245.5 Z M 24.5 237.5 "/>
<path fill-rule="nonzero" fill="rgb(14.772964%, 51.49638%, 55.594134%)" fill-opacity="1" d="M 43.5 237.5 L 62.5 237.5 L 62.5 245.5 L 43.5 245.5 Z M 43.5 237.5 "/>
<path fill-rule="nonzero" fill="rgb(17.51598%, 44.801801%, 55.686275%)" fill-opacity="1" d="M 62.5 237.5 L 81.5 237.5 L 81.5 245.5 L 62.5 245.5 Z M 62.5 237.5 "/>
<path fill-rule="nonzero" fill="rgb(21.726616%, 34.796712%, 54.720532%)" fill-opacity="1" d="M 81.5 237.5 L 100.5 237.5 L 100.5 245.5 L 81.5 245.5 Z M 81.5 237.5 "/>
<path fill-rule="nonzero" fill="rgb(28.221107%, 15.547948%, 46.931137%)" fill-opacity="1" d="M 100.5 237.5 L 119.5 237.5 L 119.5 245.5 L 100.5 245.5 Z M 100.5 237.5 "/>
<path fill-rule="nonzero" fill="rgb(38.517885%, 78.731466%, 37.317511%)" fill-opacity="1" d="M 119.5 237.5 L 138.5 237.5 L 138.5 245.5 L 119.5 245.5 Z M 119.5 237.5 "/>
<path fill-rule="nonzero" fill="rgb(25.016154%, 26.309438%, 52.531363%)" fill-opacity="1" d="M 5.5 245.5 L 24.5 245.5 L 24.5 253.5 L 5.5 253.5 Z M 5.5 245.5 "/>
<path fill-rule="nonzero" fill="rgb(14.02489%, 54.488677%, 55.059795%)" fill-opacity="1" d="M 24.5 245.5 L 43.5 245.5 L 43.5 253.5 L 24.5 253.5 Z M 24.5 245.5 "/>
<path fill-rule="nonzero" fill="rgb(75.659673%, 87.684069%, 16.7686%)" fill-opacity="1" d="M 43.5 245.5 L 62.5 245.5 L 62.5 253.5 L 43.5 253.5 Z M 43.5 245.5 "/>
<path fill-rule="nonzero" fill="rgb(18.660992%, 42.09541%, 55.686275%)" fill-opacity="1" d="M 62.5 245.5 L 81.5 245.5 L 81.5 253.5 L 62.5 253.5 Z M 62.5 245.5 "/>
<path fill-rule="nonzero" fill="rgb(15.096189%, 50.521308%, 55.686275%)" fill-opacity="1" d="M 81.5 245.5 L 100.5 245.5 L 100.5 253.5 L 81.5 253.5 Z M 81.5 245.5 "/>
<path fill-rule="nonzero" fill="rgb(26.822111%, 1.907736%, 34.340173%)" fill-opacity="1" d="M 100.5 245.5 L 119.5 245.5 L 119.5 253.5 L 100.5 253.5 Z M 100.5 245.5 "/>
<path fill-rule="nonzero" fill="rgb(99.215686%, 90.588235%, 14.509804%)" fill-opacity="1" d="M 119.5 245.5 L 138.5 245.5 L 138.5 253.5 L 119.5 253.5 Z M 119.5 245.5 "/>
<path fill-rule="nonzero" fill="rgb(16.1954%, 47.923172%, 55.686275%)" fill-opacity="1" d="M 5.5 253.5 L 24.5 253.5 L 24.5 261.5 L 5.5 261.5 Z M 5.5 253.5 "/>
<path fill-rule="nonzero" fill="rgb(25.293732%, 25.393429%, 52.059479%)" fill-opacity="1" d="M 24.5 253.5 L 43.5 253.5 L 43.5 261.5 L 24.5 261.5 Z M 24.5 253.5 "/>
<path fill-rule="nonzero" fill="rgb(22.565597%, 32.796065%, 54.397847%)" fill-opacity="1" d="M 43.5 253.5 L 62.5 253.5 L 62.5 261.5 L 43.5 261.5 Z M 43.5 253.5 "/>
<path fill-rule="nonzero" fill="rgb(12.285783%, 62.107284%, 53.63173%)" fill-opacity="1" d="M 62.5 253.5 L 81.5 253.5 L 81.5 261.5 L 62.5 261.5 Z M 62.5 253.5 "/>
<path fill-rule="nonzero" fill="rgb(21.636403%, 35.011836%, 54.75523%)" fill-opacity="1" d="M 81.5 253.5 L 100.5 253.5 L 100.5 261.5 L 81.5 261.5 Z M 81.5 253.5 "/>
<path fill-rule="nonzero" fill="rgb(14.73896%, 51.632393%, 55.569846%)" fill-opacity="1" d="M 100.5 253.5 L 119.5 253.5 L 119.5 261.5 L 100.5 261.5 Z M 100.5 253.5 "/>
<path fill-rule="nonzero" fill="rgb(22.141596%, 33.807145%, 54.560925%)" fill-opacity="1" d="M 119.5 253.5 L 138.5 253.5 L 138.5 261.5 L 119.5 261.5 Z M 119.5 253.5 "/>
</svg>
